<svg xmlns="http://www.w3.org/2000/svg" width="91.339" height="71.616" viewBox="0 0 91.339 71.616">
  <path id="Path_2" data-name="Path 2" d="M21.952,5.22c2.153,0,1.595-13.054,10.074-17.3,6.459-3.238,21.475,17.5,25.715,17.3,14.761-.69,19.376.451,22.078,12.2.063.271-.11-.551,0,0,2.131,3.8-26.9,2.373-26.9,7.263,0,9.323,46.729,23.061,21.153,33.9-4.313,3.042-42.827-6.317-48.738-6.317-6.734,0-25.07,6.389-30.04,2.229-5.866-4.908,2.455-21.312,2.455-29.813,0-6.444-10.353-20.929-6.508-25.8C-3.845-7.35,13.162,5.22,21.952,5.22Z" transform="translate(9.611 12.428)" fill="rgba(9,17,51,0.18)"/>
</svg>
