<svg xmlns="http://www.w3.org/2000/svg" width="96.406" height="75.57" viewBox="0 0 96.406 75.57">
  <path id="Path_3" data-name="Path 3" d="M19.858,5.583c10.344,0,53.662-8.781,57.868,12.2,2.131,3.8-26.9,2.373-26.9,7.263,0,9.323,43.3,4.486,17.725,15.326-1.738,1.226-7.539-2.739-13.191,1.963C47.4,48.955,38.753,64.695,35.224,64.695c-3.374,0-6.076-14.185-15.366-16.18C11.065,46.626-4.316,56.931-6.8,54.855-9.679,44.886,3.625,39.344,3.638,35.432c.025-8.885-7.978-4.337-7.978-10.39,0-6.444-17.521-29.914-13.676-34.789C-13.107-15.973,11.068,5.583,19.858,5.583Z" transform="translate(18.568 10.876)" fill="rgba(9,17,51,0.18)"/>
</svg>
