<?xml version="1.0" standalone="no"?>
<!DOCTYPE svg PUBLIC "-//W3C//DTD SVG 20010904//EN"
 "http://www.w3.org/TR/2001/REC-SVG-20010904/DTD/svg10.dtd">
<svg version="1.0" xmlns="http://www.w3.org/2000/svg"
 width="260.000000pt" height="260.000000pt" viewBox="0 0 260.000000 260.000000"
 preserveAspectRatio="xMidYMid meet">
<metadata>
Created by potrace 1.14, written by Peter Selinger 2001-2017
</metadata>
<g transform="translate(0.000000,260.000000) scale(0.100000,-0.100000)"
fill="#000000" stroke="none">
<path d="M211 2589 c-73 -22 -142 -82 -183 -159 l-23 -45 0 -1085 0 -1085 24
-48 c31 -60 78 -107 138 -138 l48 -24 1085 0 1085 0 47 24 c57 29 109 81 140
141 l23 45 0 1085 0 1085 -24 47 c-29 57 -81 109 -141 140 l-45 23 -1070 2
c-671 1 -1083 -2 -1104 -8z m1402 -265 c26 -6 27 -9 27 -64 l0 -57 63 -7 c34
-4 88 -12 120 -18 l57 -11 0 -198 0 -198 -37 7 c-21 4 -81 7 -133 7 l-95 0 0
-65 0 -65 118 -3 117 -3 0 -194 0 -195 -130 0 -130 0 0 -525 0 -525 -250 0
-250 0 0 115 0 115 -70 0 -70 0 0 410 c0 403 0 410 -20 410 -19 0 -20 7 -20
120 l0 120 -70 0 -70 0 0 150 0 150 90 0 90 0 0 93 c1 248 80 381 260 433 46
14 345 12 403 -2z"/>
<path d="M1646 2103 c-3 -4 -6 -24 -6 -46 l0 -39 -83 7 c-96 8 -160 -5 -182
-38 -8 -12 -17 -59 -21 -105 l-7 -82 85 0 c80 0 85 1 96 25 19 42 65 57 169
56 l93 -1 0 105 0 104 -32 5 c-80 12 -107 14 -112 9z"/>
<path d="M1610 1531 l0 -30 -127 -3 -128 -3 -3 -527 -2 -528 -85 0 -85 0 0
-70 0 -70 160 0 160 0 0 525 0 524 128 3 127 3 0 100 0 100 -72 3 -73 3 0 -30z"/>
</g>
</svg>
