<svg id="facebook" xmlns="http://www.w3.org/2000/svg" width="59.399" height="59.399" viewBox="0 0 59.399 59.399">
  <path id="BG_1" data-name="BG 1" d="M0,0H59.4V59.4H0Z" fill="none" opacity="0.58"/>
  <path id="Vector" d="M12.379,8.171v7.177h6.435c.495,0,.742.495.742.99l-.99,4.7c0,.247-.495.495-.742.495H12.379V39.6H4.954V21.784H.746A.656.656,0,0,1,0,21.041v-4.7A.656.656,0,0,1,.746,15.6H4.954V7.429A7.291,7.291,0,0,1,12.379,0h6.682A.656.656,0,0,1,19.8.746v5.94a.656.656,0,0,1-.742.742h-5.94a.656.656,0,0,0-.742.742Z" transform="translate(22.271 14.846)" fill="none" stroke="#fff" stroke-linecap="round" stroke-width="1"/>
  <path id="Vector-2" data-name="Vector" d="M32.175,49.5H17.325C4.95,49.5,0,44.55,0,32.175V17.325C0,4.95,4.95,0,17.325,0h14.85C44.55,0,49.5,4.95,49.5,17.325v14.85C49.5,44.55,44.55,49.5,32.175,49.5Z" transform="translate(4.95 4.95)" fill="none" stroke="#fff" stroke-linecap="round" stroke-linejoin="round" stroke-width="1"/>
  <path id="Vector-3" data-name="Vector" d="M0,0H59.4V59.4H0Z" fill="none" opacity="0"/>
</svg>
