<svg xmlns="http://www.w3.org/2000/svg" width="51.53" height="55.443" viewBox="0 0 51.53 55.443">
  <path id="github" d="M18.1,46.614C5.172,50.493,5.172,40.149,0,38.856M36.2,54.371V44.364a8.714,8.714,0,0,0-2.431-6.749c8.119-.905,16.653-3.982,16.653-18.1A14.065,14.065,0,0,0,46.546,9.82a13.11,13.11,0,0,0-.235-9.75S43.261-.836,36.2,3.9a34.6,34.6,0,0,0-18.1,0C11.041-.836,7.99.069,7.99.069a13.11,13.11,0,0,0-.233,9.749,14.067,14.067,0,0,0-3.879,9.774c0,14.015,8.533,17.092,16.653,18.1A8.714,8.714,0,0,0,18.1,44.364V54.371" transform="translate(0.606 0.572)" fill="none" stroke="#fff" stroke-linecap="round" stroke-linejoin="round" stroke-width="1"/>
</svg>
