<svg id="instagram" xmlns="http://www.w3.org/2000/svg" width="59.399" height="59.399" viewBox="0 0 59.399 59.399">
  <path id="Vector" d="M17.325,49.5h14.85C44.55,49.5,49.5,44.55,49.5,32.175V17.325C49.5,4.95,44.55,0,32.175,0H17.325C4.95,0,0,4.95,0,17.325v14.85C0,44.55,4.95,49.5,17.325,49.5Z" transform="translate(4.95 4.95)" fill="none" stroke="#fff" stroke-linecap="round" stroke-linejoin="round" stroke-width="1"/>
  <path id="Vector-2" data-name="Vector" d="M0,0H59.4V59.4H0Z" fill="none" opacity="0"/>
  <path id="Vector-3" data-name="Vector" d="M17.325,8.662A8.662,8.662,0,1,1,8.662,0a8.662,8.662,0,0,1,8.662,8.662Z" transform="translate(21.037 21.037)" fill="none" stroke="#fff" stroke-linecap="round" stroke-linejoin="round" stroke-width="1.5"/>
  <path id="Vector-4" data-name="Vector" d="M.636.5h.03" transform="translate(43.013 16.825)" fill="none" stroke="#fff" stroke-linecap="round" stroke-linejoin="round" stroke-width="2"/>
</svg>
